# Blender 5.0.1
# www.blender.org
mtllib Assets2.mtl
o Cube.002
v -10.000000 0.000000 10.000000
v -10.000000 20.000000 10.000000
v -10.000000 0.000000 -10.000000
v -10.000000 20.000000 -10.000000
v 10.000000 0.000000 10.000000
v 10.000000 20.000000 10.000000
v 10.000000 0.000000 -10.000000
v 10.000000 20.000000 -10.000000
v -10.000000 8.000000 10.000000
v -10.000000 8.000000 -10.000000
v 10.000000 8.000000 -10.000000
v 10.000000 8.000000 10.000000
v -10.000000 0.000000 0.000000
v -10.000000 20.000000 0.000000
v 10.000000 20.000000 0.000000
v 10.000000 8.000000 0.000000
v -10.000000 8.000000 0.000000
v 10.000000 6.000001 0.000000
v -10.000000 0.000000 3.000000
v 10.000000 20.000000 3.000000
v 10.000000 8.000000 3.000000
v -10.000000 20.000000 3.000000
v 10.000000 0.000000 3.000000
v -10.000000 8.000000 3.000000
v 10.000000 6.000001 3.000000
v -10.000000 20.000000 -3.000000
v 10.000000 0.000000 -3.000000
v -10.000000 8.000000 -3.000000
v -10.000000 0.000000 -3.000000
v 10.000000 20.000000 -3.000000
v 10.000000 8.000000 -3.000000
v 10.000000 6.000001 -3.000000
v 9.999999 0.000000 0.000000
v -10.965517 0.000000 3.300000
v -10.965517 0.000000 11.000000
v -10.965517 6.000001 -11.000000
v -10.965517 0.000000 -11.000000
v 11.034483 0.000000 -11.000000
v 11.034483 6.000001 -11.000000
v 11.034483 0.000000 -3.000000
v 11.034483 6.000001 11.000000
v 11.034483 0.000000 11.000000
v -10.965517 6.000001 11.000000
v -10.965517 8.000000 11.000000
v 11.034483 8.000000 11.000000
v 11.034483 8.000000 3.000000
v -10.965517 8.000000 -11.000000
v 11.034483 8.000000 -11.000000
v -10.965517 8.000000 -3.300000
v -10.965517 0.000000 -3.300000
v -10.965517 0.000000 0.000000
v 11.034483 8.000000 -3.000000
v 11.034483 8.000000 0.000000
v -10.965517 8.000000 3.300000
v -10.965517 8.000000 0.000000
v -10.965517 6.000001 0.000000
v 11.034483 6.000001 0.000000
v 11.034483 6.000001 -3.000000
v -10.965517 6.000001 3.300000
v -10.965517 6.000001 -3.300000
v 11.034483 6.000001 3.000000
v 11.034483 0.000000 3.000000
v 10.000000 17.000000 8.000000
v 12.051922 21.000000 10.758791
v 12.051922 20.000000 10.758791
v 11.034483 0.000000 9.900000
v 11.034483 6.000001 9.900000
v 11.034483 8.000000 9.900000
v 10.000000 0.000000 9.000000
v 10.000000 8.000000 9.000000
v 10.000000 20.000000 9.000000
v -10.000000 9.999999 -3.000000
v -12.051922 20.000000 -3.000000
v -12.051922 20.000000 -12.051922
v 12.051922 20.000000 -12.051922
v 12.051922 20.000000 3.000000
v 12.051922 20.000000 12.051922
v -12.051922 20.000000 12.051922
v -12.051922 20.000000 3.000000
v -12.051922 20.000000 0.000000
v 12.051922 20.000000 -3.000000
v 12.051922 20.000000 0.000000
v -12.051922 21.000000 -3.000000
v 12.051922 21.000000 0.000000
v 12.051922 21.000000 -3.000000
v -12.051922 21.000000 -12.051922
v 12.051922 21.000000 -12.051922
v 12.051922 21.000000 3.000000
v 12.051922 21.000000 12.051922
v -12.051922 21.000000 12.051922
v -12.051922 21.000000 3.000000
v -12.051922 21.000000 0.000000
v 0.000000 27.999994 -0.000000
v -10.000000 17.999998 -3.000000
v 10.000000 11.000000 -4.000000
v 10.000000 17.000000 -4.000000
v 10.000000 11.000000 4.000000
v 10.000000 17.000000 4.000000
v -10.000000 9.999999 3.000000
v -10.000000 17.999998 3.000000
v -10.000000 9.999999 0.000000
v -10.000000 17.999998 0.000000
v 10.000000 9.999999 0.000000
v 10.000000 17.999998 0.000000
v 10.000000 9.999999 10.000000
v 10.000000 17.999998 10.000000
v 10.000000 9.999999 -10.000000
v 10.000000 17.999998 -10.000000
v -10.000000 9.999999 -10.000000
v -10.000000 17.999998 -10.000000
v -10.000000 18.000000 10.000000
v -10.000000 10.000001 10.000000
v 10.000000 11.000000 8.000000
v 10.000000 0.000000 -9.000000
v 10.000000 20.000000 -9.000000
v 10.000000 8.000000 -9.000000
v 11.034483 0.000000 -9.900000
v 11.034483 8.000000 -9.900000
v 11.034483 6.000001 -9.900000
v 12.051922 20.000000 -10.758791
v 12.051922 21.000000 -10.758791
v 10.000000 17.000000 -8.000000
v 10.000000 11.000000 -8.000000
v 10.000000 17.999998 -9.000000
v 10.000000 17.999998 -3.000000
v 10.000000 9.999999 -9.000000
v 10.000000 9.999999 -3.000000
v 10.000000 17.999998 3.000000
v 10.000000 9.999999 3.000000
v 10.000000 17.999998 9.000000
v 10.000000 9.999999 9.000000
v 11.000000 17.999998 -9.000000
v 11.000000 17.999998 -3.000000
v 11.000000 9.999999 -9.000000
v 11.000000 9.999999 -3.000000
v 11.000000 17.999998 3.000000
v 11.000000 9.999999 3.000000
v 11.000000 17.999998 9.000000
v 11.000000 9.999999 9.000000
v 11.000000 17.000000 -8.000000
v 11.000000 17.000000 -4.000000
v 11.000000 11.000000 -8.000000
v 11.000000 11.000000 -4.000000
v 11.000000 17.000000 4.000000
v 11.000000 11.000000 4.000000
v 11.000000 17.000000 8.000000
v 11.000000 11.000000 8.000000
vn -1.0000 -0.0000 -0.0000
vn -0.0000 -0.0000 -1.0000
vn 1.0000 -0.0000 -0.0000
vn -0.0000 -0.0000 1.0000
vn -0.0000 -1.0000 -0.0000
vn -0.0000 1.0000 -0.0000
vn -0.0000 0.8647 -0.5022
vn -0.5022 0.8647 -0.0000
vn -0.0000 0.8647 0.5022
vn 0.5022 0.8647 -0.0000
vt 0.583333 0.162500
vt 0.625000 0.162500
vt 0.625000 0.250000
vt 0.583333 0.250000
vt 0.625000 0.500000
vt 0.583333 0.500000
vt 0.583333 0.737500
vt 0.625000 0.737500
vt 0.625000 0.750000
vt 0.583333 0.750000
vt 0.625000 1.000000
vt 0.583333 1.000000
vt 0.125000 0.662500
vt 0.375000 0.662500
vt 0.375000 0.737500
vt 0.375000 0.750000
vt 0.125000 0.750000
vt 0.625000 0.625000
vt 0.625000 0.587500
vt 0.437500 0.662500
vt 0.437500 0.625000
vt 0.125000 0.587500
vt 0.125000 0.625000
vt 0.500000 0.162500
vt 0.500000 0.250000
vt 0.375000 0.500000
vt 0.125000 0.500000
vt 0.500000 0.000000
vt 0.500000 0.087500
vt 0.500000 0.500000
vt 0.625000 0.662500
vt 0.583333 0.587500
vt 0.583333 0.625000
vt 0.583333 0.087500
vt 0.625000 0.087500
vt 0.625000 0.125000
vt 0.583333 0.125000
vt 0.500000 0.512500
vt 0.500000 0.587500
vt 0.500000 0.512500
vt 0.500000 0.737500
vt 0.500000 0.750000
vt 0.500000 0.737500
vt 0.500000 0.125000
vt 0.500000 1.000000
vt 0.583333 0.000000
vt 0.625000 0.000000
vt 0.500000 0.625000
vt 0.375000 0.625000
vt 0.350000 0.662500
vt 0.583333 0.662500
vt 0.500000 0.662500
vt 0.437500 0.587500
vt 0.583333 0.512500
vt 0.625000 0.512500
vt 0.375000 0.512500
vt 0.350000 0.587500
vt 0.541667 0.250000
vt 0.541667 0.500000
vt 0.375000 0.587500
vt 0.437500 0.750000
vt 0.437500 1.000000
vt 0.437500 0.737500
vt 0.437500 0.250000
vt 0.437500 0.500000
vt 0.437500 0.162500
vt 0.437500 0.087500
vt 0.437500 0.125000
vt 0.375000 0.087500
vt 0.375000 0.125000
vt 0.375000 0.162500
vt 0.375000 0.250000
vt 0.375000 1.000000
vt 0.375000 0.000000
vt 0.437500 0.000000
vt 0.437500 0.512500
vt 0.541667 0.737500
vt 0.541667 0.750000
vt 0.625000 0.737500
vt 0.625000 0.512500
vt 0.541667 1.000000
vt 0.541667 0.587500
vt 0.541667 0.625000
vt 0.541667 0.087500
vt 0.541667 0.125000
vt 0.541667 0.000000
vt 0.541667 0.662500
vt 0.545276 0.521163
vt 0.579724 0.521163
vt 0.579724 0.578837
vt 0.545276 0.578837
vt 0.541667 0.512500
vt 0.541667 0.162500
vt 0.545276 0.671163
vt 0.579724 0.671163
vt 0.579724 0.728837
vt 0.545276 0.728837
s 0
f 94/1/1 26/2/1 4/3/1 110/4/1
f 110/4/2 4/3/2 8/5/2 108/6/2
f 130/7/3 71/8/3 6/9/3 106/10/3
f 106/10/4 6/9/4 2/11/4 111/12/4
f 19/13/5 23/14/5 69/15/5 5/16/5 1/17/5
f 15/18/5 30/19/5 81/19/5 82/18/5
f 25/20/5 18/21/5 57/21/5 61/20/5
f 29/22/5 13/23/5 51/23/5 50/22/5
f 28/24/6 10/25/6 47/25/6 49/24/6
f 7/26/5 3/27/5 37/27/5 38/26/5
f 9/28/6 24/29/6 54/29/6 44/28/6
f 10/25/6 11/30/6 48/30/6 47/25/6
f 20/31/5 15/18/5 82/18/5 76/31/5
f 125/32/3 30/19/3 15/18/3 104/33/3
f 100/34/1 22/35/1 14/36/1 102/37/1
f 116/38/6 31/39/6 52/39/6 118/40/6
f 1/17/5 5/16/5 42/16/5 35/17/5
f 69/15/5 23/14/5 62/14/5 66/15/5
f 70/41/6 12/42/6 45/42/6 68/43/6
f 24/29/6 17/44/6 55/44/6 54/29/6
f 12/42/6 9/45/6 44/45/6 45/42/6
f 111/46/1 2/47/1 22/35/1 100/34/1
f 31/39/6 16/48/6 53/48/6 52/39/6
f 3/27/5 29/22/5 50/22/5 37/27/5
f 8/5/5 4/3/5 74/3/5 75/5/5
f 13/23/5 33/49/5 23/50/5 19/13/5
f 104/33/3 15/18/3 20/31/3 128/51/3
f 16/48/6 21/52/6 46/52/6 53/48/6
f 18/21/5 32/53/5 58/53/5 57/21/5
f 124/54/3 115/55/3 30/19/3 125/32/3
f 3/27/5 7/26/5 114/56/5 27/57/5 29/22/5
f 109/58/2 110/4/2 108/6/2 107/59/2
f 19/13/5 1/17/5 35/17/5 34/13/5
f 17/44/6 28/24/6 49/24/6 55/44/6
f 102/37/1 14/36/1 26/2/1 94/1/1
f 27/60/3 32/53/3 18/21/3 33/49/3
f 33/49/3 18/21/3 25/20/3 23/14/3
f 29/22/5 27/60/5 33/49/5 13/23/5
f 41/61/4 45/42/4 44/45/4 43/62/4
f 67/63/3 68/43/3 45/42/3 41/61/3
f 36/64/2 47/25/2 48/30/2 39/65/2
f 60/66/1 49/24/1 47/25/1 36/64/1
f 59/67/1 54/29/1 55/44/1 56/68/1
f 58/53/3 52/39/3 53/48/3 57/21/3
f 34/69/1 59/67/1 56/68/1 51/70/1
f 50/71/1 60/66/1 36/64/1 37/72/1
f 37/72/2 36/64/2 39/65/2 38/26/2
f 66/15/3 67/63/3 41/61/3 42/16/3
f 42/16/4 41/61/4 43/62/4 35/73/4
f 35/74/1 43/75/1 59/67/1 34/69/1
f 43/75/1 44/28/1 54/29/1 59/67/1
f 57/21/3 53/48/3 46/52/3 61/20/3
f 51/70/1 56/68/1 60/66/1 50/71/1
f 117/56/3 119/76/3 58/53/3 40/60/3
f 119/76/3 118/40/3 52/39/3 58/53/3
f 56/68/1 55/44/1 49/24/1 60/66/1
f 13/23/5 19/13/5 34/13/5 51/23/5
f 23/14/2 25/20/2 61/20/2 62/14/2
f 32/53/4 27/60/4 40/60/4 58/53/4
f 114/56/5 7/26/5 38/26/5 117/56/5
f 10/25/2 109/58/2 107/59/2 11/30/2
f 131/77/3 130/7/3 106/10/3 105/78/3
f 70/41/3 131/77/3 105/78/3 12/42/3
f 87/5/7 86/3/7 93/5/7
f 26/2/5 14/36/5 80/36/5 73/2/5
f 14/36/5 22/35/5 79/35/5 80/36/5
f 92/36/8 91/35/8 93/36/8
f 91/35/8 90/47/8 93/35/8
f 4/3/5 26/2/5 73/2/5 74/3/5
f 86/3/8 83/2/8 93/3/8
f 65/79/3 76/31/3 88/31/3 64/8/3
f 79/35/1 78/47/1 90/47/1 91/35/1
f 74/3/1 73/2/1 83/2/1 86/3/1
f 82/18/3 81/19/3 85/19/3 84/18/3
f 120/80/3 75/5/3 87/5/3 121/55/3
f 76/31/3 82/18/3 84/18/3 88/31/3
f 75/5/2 74/3/2 86/3/2 87/5/2
f 73/2/1 80/36/1 92/36/1 83/2/1
f 80/36/1 79/35/1 91/35/1 92/36/1
f 78/11/4 77/9/4 89/9/4 90/11/4
f 90/11/9 89/9/9 93/11/9
f 88/31/10 84/18/10 93/31/10
f 85/19/10 121/55/10 87/5/10 93/19/10
f 71/8/5 20/31/5 76/31/5 65/79/5
f 22/35/5 2/47/5 78/47/5 79/35/5
f 89/9/10 64/8/10 88/31/10 93/9/10
f 115/55/5 8/5/5 75/5/5 120/80/5
f 84/18/10 85/19/10 93/18/10
f 83/2/8 92/36/8 93/2/8
f 2/11/5 6/9/5 77/9/5 78/11/5
f 105/78/4 106/10/4 111/12/4 112/81/4
f 12/42/4 105/78/4 112/81/4 9/45/4
f 127/82/3 125/32/3 104/33/3 103/83/3
f 31/39/3 127/82/3 103/83/3 16/48/3
f 99/84/1 100/34/1 102/37/1 101/85/1
f 24/29/1 99/84/1 101/85/1 17/44/1
f 112/86/1 111/46/1 100/34/1 99/84/1
f 9/28/1 112/86/1 99/84/1 24/29/1
f 103/83/3 104/33/3 128/51/3 129/87/3
f 16/48/3 103/83/3 129/87/3 21/52/3
f 123/88/3 122/89/3 96/90/3 95/91/3
f 116/38/3 126/92/3 127/82/3 31/39/3
f 101/85/1 102/37/1 94/1/1 72/93/1
f 17/44/1 101/85/1 72/93/1 28/24/1
f 28/24/1 72/93/1 109/58/1 10/25/1
f 72/93/1 94/1/1 110/4/1 109/58/1
f 6/9/5 71/8/5 65/79/5 77/9/5
f 77/9/3 65/79/3 64/8/3 89/9/3
f 21/52/3 129/87/3 131/77/3 70/41/3
f 97/94/3 98/95/3 63/96/3 113/97/3
f 62/14/3 61/20/3 67/63/3 66/15/3
f 61/20/3 46/52/3 68/43/3 67/63/3
f 21/52/6 70/41/6 68/43/6 46/52/6
f 5/16/5 69/15/5 66/15/5 42/16/5
f 128/51/3 20/31/3 71/8/3 130/7/3
f 11/30/3 107/59/3 126/92/3 116/38/3
f 107/59/3 108/6/3 124/54/3 126/92/3
f 30/19/5 115/55/5 120/80/5 81/19/5
f 81/19/3 120/80/3 121/55/3 85/19/3
f 27/60/5 114/56/5 117/56/5 40/60/5
f 39/65/3 48/30/3 118/40/3 119/76/3
f 38/26/3 39/65/3 119/76/3 117/56/3
f 108/6/3 8/5/3 115/55/3 124/54/3
f 11/30/6 116/38/6 118/40/6 48/30/6
f 95/91/2 96/90/2 141/90/2 143/91/2
f 125/32/4 127/82/4 135/82/4 133/32/4
f 123/88/6 95/91/6 143/91/6 142/88/6
f 131/77/5 129/87/5 137/87/5 139/77/5
f 96/90/5 122/89/5 140/89/5 141/90/5
f 128/51/6 130/7/6 138/7/6 136/51/6
f 122/89/4 123/88/4 142/88/4 140/89/4
f 126/92/2 124/54/2 132/54/2 134/92/2
f 141/90/3 140/89/3 132/54/3 133/32/3
f 142/88/3 143/91/3 135/82/3 134/92/3
f 143/91/3 141/90/3 133/32/3 135/82/3
f 144/95/3 145/94/3 137/87/3 136/51/3
f 146/96/3 144/95/3 136/51/3 138/7/3
f 145/94/3 147/97/3 139/77/3 137/87/3
f 147/97/3 146/96/3 138/7/3 139/77/3
f 140/89/3 142/88/3 134/92/3 132/54/3
f 98/95/4 97/94/4 145/94/4 144/95/4
f 124/54/6 125/32/6 133/32/6 132/54/6
f 129/87/2 128/51/2 136/51/2 137/87/2
f 63/96/5 98/95/5 144/95/5 146/96/5
f 127/82/5 126/92/5 134/92/5 135/82/5
f 130/7/4 131/77/4 139/77/4 138/7/4
f 97/94/6 113/97/6 147/97/6 145/94/6
f 113/97/2 63/96/2 146/96/2 147/97/2
